<svg width="24" height="24" viewBox="0 0 24 24" fill="none" xmlns="http://www.w3.org/2000/svg">
<mask id="mask0_543_13962" style="mask-type:alpha" maskUnits="userSpaceOnUse" x="0" y="0" width="24" height="24">
<circle cx="12" cy="12" r="12" fill="#D9D9D9"/>
</mask>
<g mask="url(#mask0_543_13962)">
<g clip-path="url(#clip0_543_13962)">
<path d="M34.2 0H-9V24H34.2V0Z" fill="#00008B"/>
<path d="M-9 0L12.6 12ZM12.6 0L-9 12Z" fill="black"/>
<path d="M-9 0L12.6 12M12.6 0L-9 12" stroke="white" stroke-width="2.4"/>
<path d="M-9 0L12.6 12ZM12.6 0L-9 12Z" fill="black"/>
<path d="M-9 0L12.6 12M12.6 0L-9 12" stroke="#FF0000" stroke-width="1.6"/>
<path d="M1.8 0V12ZM-9 6H12.6Z" fill="black"/>
<path d="M1.8 0V12M-9 6H12.6" stroke="white" stroke-width="4"/>
<path d="M1.8 0V12ZM-9 6H12.6Z" fill="black"/>
<path d="M1.8 0V12M-9 6H12.6" stroke="#FF0000" stroke-width="2.4"/>
<path d="M1.80183 14.3994L2.42663 16.5579L4.33497 15.7549L3.20573 17.6434L4.9606 18.8005L2.92767 18.997L3.20762 21.2429L1.80183 19.5994L0.39605 21.2429L0.675996 18.997L-1.35693 18.8005L0.397937 17.6434L-0.731301 15.7549L1.17704 16.5579L1.80183 14.3994Z" fill="white"/>
<path d="M23.3997 18.2852L23.6972 19.313L24.6059 18.9306L24.0682 19.8299L24.9039 20.3809L23.9358 20.4745L24.0691 21.544L23.3997 20.7613L22.7303 21.544L22.8636 20.4745L21.8955 20.3809L22.7312 19.8299L22.1934 18.9306L23.1022 19.313L23.3997 18.2852Z" fill="white"/>
<path d="M17.9998 8.78516L18.2973 9.81299L19.206 9.4306L18.6683 10.3299L19.504 10.8809L18.5359 10.9745L18.6692 12.044L17.9998 11.2613L17.3304 12.044L17.4637 10.9745L16.4956 10.8809L17.3313 10.3299L16.7935 9.4306L17.7023 9.81299L17.9998 8.78516Z" fill="white"/>
<path d="M23.3997 2.28516L23.6972 3.31299L24.6059 2.9306L24.0682 3.8299L24.9039 4.38091L23.9358 4.47448L24.0691 5.54396L23.3997 4.76135L22.7303 5.54396L22.8636 4.47448L21.8955 4.38091L22.7312 3.8299L22.1934 2.9306L23.1022 3.31299L23.3997 2.28516Z" fill="white"/>
</g>
</g>
<defs>
<clipPath id="clip0_543_13962">
<rect width="43.2" height="24" fill="white" transform="translate(-9)"/>
</clipPath>
</defs>
</svg>
