<svg width="24" height="25" viewBox="0 0 24 25" fill="none" xmlns="http://www.w3.org/2000/svg">
<g clip-path="url(#clip0_2287_44830)">
<path d="M12 24.5C18.6274 24.5 24 19.1274 24 12.5C24 5.87258 18.6274 0.5 12 0.5C5.37258 0.5 0 5.87258 0 12.5C0 19.1274 5.37258 24.5 12 24.5Z" fill="#F0F0F0"/>
<path d="M0 12.5C0 5.87263 5.37262 0.5 12 0.5C18.6274 0.5 24 5.87263 24 12.5" fill="#D80027"/>
<path d="M7.30353 6.7615C7.30353 5.01316 8.53227 3.55263 10.1731 3.19427C9.92089 3.13923 9.65928 3.10938 9.39045 3.10938C7.37337 3.10938 5.73828 4.74447 5.73828 6.76155C5.73828 8.77863 7.37337 10.4137 9.39045 10.4137C9.65919 10.4137 9.92084 10.3839 10.1731 10.3288C8.53227 9.97042 7.30353 8.50989 7.30353 6.7615Z" fill="#F0F0F0"/>
<path d="M11.9995 3.37109L12.2585 4.1682H13.0967L12.4186 4.66091L12.6776 5.45802L11.9995 4.96541L11.3214 5.45802L11.5804 4.66091L10.9023 4.1682H11.7405L11.9995 3.37109Z" fill="#F0F0F0"/>
<path d="M9.96639 4.93555L10.2254 5.7327H11.0635L10.3855 6.22536L10.6445 7.02247L9.96639 6.52986L9.2882 7.02247L9.54728 6.22536L8.86914 5.7327H9.70731L9.96639 4.93555Z" fill="#F0F0F0"/>
<path d="M14.0327 4.93555L14.2918 5.7327H15.1299L14.4518 6.22536L14.7108 7.02247L14.0327 6.52986L13.3546 7.02247L13.6136 6.22536L12.9355 5.7327H13.7737L14.0327 4.93555Z" fill="#F0F0F0"/>
<path d="M13.2495 7.2832L13.5085 8.08036H14.3467L13.6686 8.57302L13.9276 9.37012L13.2495 8.87752L12.5714 9.37012L12.8304 8.57302L12.1523 8.08036H12.9904L13.2495 7.2832Z" fill="#F0F0F0"/>
<path d="M10.7476 7.2832L11.0066 8.08036H11.8448L11.1667 8.57302L11.4257 9.37012L10.7476 8.87752L10.0695 9.37012L10.3285 8.57302L9.65039 8.08036H10.4886L10.7476 7.2832Z" fill="#F0F0F0"/>
</g>
<defs>
<clipPath id="clip0_2287_44830">
<rect width="24" height="24" fill="white" transform="translate(0 0.5)"/>
</clipPath>
</defs>
</svg>
