<svg width="60" height="40" viewBox="0 0 60 40" fill="none" xmlns="http://www.w3.org/2000/svg">
<path d="M15 3.51396C13.1675 3.18822 11.2704 3.33292 9.52466 3.9316V3.9316L9.50272 3.93974C9.34532 3.99326 9.1918 4.05608 9.03827 4.11308L8.99699 4.12937C8.84217 4.19335 8.68864 4.25966 8.53641 4.32946L8.49641 4.34923C8.34805 4.41787 8.20226 4.49116 8.05648 4.56562L7.99197 4.60284C7.86296 4.67148 7.73394 4.74244 7.61267 4.81573L7.54946 4.85063C6.99748 5.18302 6.48324 5.56373 6.01419 5.98721V5.98721C6.00883 5.99087 6.00406 5.99517 6 6C6.01935 5.96045 6.03612 5.91973 6.05418 5.88367L6.06451 5.86389C6.14966 5.69172 6.24125 5.5242 6.34059 5.35668C6.92291 4.37562 7.7153 3.50848 8.67187 2.80549L8.8383 2.68916L8.9557 2.60656L9.05891 2.53909L9.24727 2.42276C9.34145 2.36226 9.43692 2.30642 9.53368 2.25058L9.544 2.2436C9.64592 2.18544 9.74785 2.12727 9.85106 2.07492C10.9585 1.49262 12.1892 1.12642 13.4634 1C14.1352 1.75025 14.6553 2.60121 15 3.51396Z" fill="#8A9BA8"/>
<path d="M16.5985 13.8735C16.6103 13.6788 16.6174 13.4853 16.6174 13.2941C16.6175 12.2019 16.4152 11.1188 16.0205 10.0978V10.0978L16.0134 10.0816C15.9627 9.95523 15.912 9.82891 15.8566 9.70607C15.8294 9.64349 15.7988 9.58323 15.7728 9.5276C15.7469 9.47197 15.7256 9.42213 15.6973 9.36419L15.6785 9.32826L15.6431 9.25989L15.636 9.24482V9.23671V9.22976V9.2228V9.21701C15.6207 9.18688 15.6053 9.15674 15.5888 9.12661C15.5652 9.08141 15.5416 9.03738 15.5145 8.99218V8.98291L15.4992 8.95973C15.4685 8.90526 15.4367 8.84384 15.4024 8.79053C15.3612 8.72099 15.3163 8.64798 15.268 8.57381C15.2243 8.50544 15.1795 8.4359 15.1335 8.36636V8.35941L15.1276 8.35245C15.1076 8.32232 15.0828 8.28408 15.0533 8.24352L15.038 8.2215V8.21338L15.0144 8.18094C14.9778 8.12879 14.9401 8.07779 14.8964 8.02448V8.01637C14.8622 7.97002 14.8268 7.92482 14.7891 7.87846L14.7348 7.81008C14.7018 7.76604 14.6664 7.722 14.6287 7.67912L14.611 7.65826C14.5709 7.60843 14.5272 7.55744 14.4801 7.50413C14.3314 7.33492 14.1746 7.17152 14.0083 7.00811C14.0083 7.00811 14.0083 7.00811 14 7C14.0436 7.01854 14.0908 7.03593 14.1356 7.05679C15.7099 7.76131 17.0276 8.92135 17.9125 10.3817V10.3817C18.5021 11.3767 18.8725 12.4822 19 13.6267C18.2372 14.2279 17.3729 14.6928 16.4463 15C16.4463 14.9699 16.4558 14.9409 16.4593 14.9166C16.4711 14.8551 16.4829 14.7937 16.4947 14.7288V14.7219C16.5254 14.5341 16.5501 14.3452 16.569 14.1563C16.569 14.1007 16.5773 14.0497 16.5808 13.9999C16.5843 13.95 16.5914 13.9199 16.5985 13.8735Z" fill="#8A9BA8"/>
<path d="M14 14C13.991 14.0174 13.9832 14.036 13.9742 14.0534C13.9652 14.0708 13.9472 14.1149 13.9356 14.1381C13.1412 15.7252 11.8167 17.0495 10.1469 17.9264C9.03803 18.5077 7.80626 18.8735 6.53093 19C5.86166 18.248 5.34354 17.3965 5 16.4837C5.62973 16.5938 6.26962 16.6497 6.91108 16.6509C8.12632 16.6532 9.3319 16.4565 10.4691 16.0706C10.6173 16.0195 10.7629 15.9638 10.9072 15.9081L10.9381 15.8965C11.0155 15.8651 11.0915 15.835 11.1611 15.8048H11.1675H11.1765L11.3273 15.7398L11.3402 15.734L11.366 15.7224L11.3866 15.7131L11.482 15.669L11.4961 15.662H11.5039L11.5142 15.6562H11.5271L11.6302 15.6063C11.6693 15.5873 11.7049 15.5631 11.7358 15.5344L11.7487 15.5274L11.9201 15.4403L11.9459 15.4264L12.0077 15.3928L12.1366 15.3266L12.1662 15.3115C12.1804 15.3022 12.2088 15.2871 12.2397 15.2697L12.433 15.1537H12.4407H12.4485C12.5064 15.1165 12.5696 15.0782 12.634 15.0376C12.6881 15.0039 12.7397 14.9703 12.7874 14.9378C12.8763 14.8798 12.9613 14.8217 13.0451 14.7614L13.0606 14.7498H13.067L13.1959 14.6534L13.2139 14.6407C13.2719 14.5989 13.3273 14.5559 13.3789 14.5153C13.5696 14.3691 13.7539 14.2159 13.933 14.0511L14 14Z" fill="#8A9BA8"/>
<path d="M6 14L5.89888 13.9549L5.8675 13.9407C4.51999 13.268 3.35707 12.2114 2.49698 10.8784C2.34472 10.6424 2.2006 10.4 2.06811 10.1486V10.1395C1.48893 9.03195 1.12509 7.80216 1 6.52922C1.7531 5.86035 2.60587 5.34281 3.51976 5C3.19412 6.83152 3.33911 8.72771 3.93817 10.4722C4.17358 11.1689 4.48008 11.8334 4.8517 12.4527V12.4527C5.1837 13.0048 5.56406 13.5192 5.98722 13.9884C5.98853 13.9912 5.99033 13.9937 5.99253 13.9957C5.99473 13.9977 5.99727 13.9991 6 14V14Z" fill="#8A9BA8"/>
<path d="M9 1.87393C7.47608 2.89282 6.26917 4.31374 5.51525 5.97663C4.94719 7.23151 4.65352 8.59159 4.65358 9.96726V10C4.63454 9.94963 4.61044 9.90052 4.59267 9.85267C3.91825 8.08488 3.81665 6.15229 4.30206 4.32447C4.6237 3.11071 5.19969 1.97791 5.9924 1C7.03854 1.11545 8.05635 1.4112 9 1.87393Z" fill="#8A9BA8"/>
<path d="M19 5.96752C18.8821 7.0227 18.5838 8.04891 18.1185 9C16.9046 7.16957 15.1248 5.80169 13.06 5.11223V5.11223C13.0097 5.09433 12.9605 5.08027 12.9127 5.06493L12.754 5.01635H12.7465H12.7326C12.6495 4.99078 12.5677 4.96905 12.4808 4.94731C12.3939 4.92558 12.3108 4.90257 12.2214 4.88339H12.2125L11.9493 4.82458H11.938H11.9305C11.8927 4.82458 11.8461 4.80796 11.7894 4.79773H11.763H11.7466H11.7378H11.729H11.6912H11.6849C11.6207 4.78495 11.559 4.77472 11.4796 4.7645H11.4671C11.4053 4.75299 11.3411 4.74404 11.2819 4.73765C11.2404 4.73765 11.2064 4.72742 11.1837 4.72614C11.1258 4.71719 11.0666 4.7108 11.0062 4.70569H10.9797C10.9117 4.69929 10.8412 4.69162 10.7631 4.68779C10.5213 4.66861 10.2758 4.65966 10.029 4.65966H10L10.1448 4.59702C11.9131 3.91765 13.846 3.81531 15.6743 4.30425C16.8846 4.6181 18.0173 5.18456 19 5.96752Z" fill="#8A9BA8"/>
<path d="M16 13.3356C16.002 15.3949 15.2994 17.3932 14.0084 19C12.9622 18.8834 11.9443 18.5864 11 18.1224C12.5218 17.0963 13.7278 15.6683 14.4831 13.9979V13.9979C14.5529 13.8485 14.6164 13.694 14.6786 13.5382C14.7091 13.4597 14.737 13.3837 14.7636 13.3115V13.3001C14.7814 13.2457 14.8005 13.195 14.817 13.1444V13.1355V13.1165C14.8335 13.0684 14.8474 13.0228 14.8614 12.981L14.8703 12.9531C14.8919 12.8886 14.9147 12.8189 14.9337 12.7442C14.9591 12.6644 14.9782 12.5872 14.9985 12.5087C14.9985 12.4985 15.0099 12.4719 15.0175 12.4403C15.0251 12.4086 15.0429 12.3415 15.0531 12.2984L15.0607 12.268C15.0607 12.2516 15.0721 12.2225 15.0797 12.1845C15.0962 12.1123 15.1114 12.0376 15.1279 11.9629V11.954V11.9413C15.1406 11.8704 15.1571 11.7944 15.1698 11.7147C15.1825 11.6488 15.1914 11.588 15.2016 11.5234C15.2193 11.4158 15.232 11.3132 15.2447 11.2081V11.1853C15.2523 11.1283 15.2574 11.0739 15.265 11.0156V10.9776C15.2727 10.9042 15.2777 10.8295 15.2841 10.7598C15.3018 10.5158 15.3107 10.2689 15.3107 10.019V10C15.331 10.0507 15.3526 10.1 15.3729 10.1507C15.7709 11.1664 15.9833 12.2451 16 13.3356V13.3356Z" fill="#8A9BA8"/>
<path d="M10 15.3413L9.85139 15.4034C8.38316 15.9675 6.79407 16.1354 5.24153 15.8907C3.689 15.646 2.22688 14.9971 1 14.0083C1.11651 12.9613 1.41492 11.943 1.88161 11C2.89981 12.5223 4.31951 13.7284 5.98111 14.4827C6.64562 14.7853 7.34247 15.01 8.05793 15.1523C8.69378 15.2826 9.34105 15.348 9.98992 15.3476L10 15.3413Z" fill="#8A9BA8"/>
<path d="M21.7109 6.11009C21.7109 8.92861 25.8813 10.4021 30.0007 10.4021C34.1202 10.4021 38.2901 8.92861 38.2901 6.11009C38.2901 0.47502 21.7109 0.47502 21.7109 6.11009Z" fill="#8A9BA8"/>
<path d="M30.0007 12.0259C26.8713 12.0259 23.7323 11.2875 21.7417 9.71777C21.7383 9.77436 21.7109 9.82229 21.7109 9.88006C21.7109 12.6986 25.8813 14.1717 30.0007 14.1717C34.1202 14.1717 38.2901 12.6986 38.2901 9.88006C38.2901 11.1103 38.2598 9.71777 38.2598 9.71777C36.2687 11.2875 33.1298 12.0259 30.0007 12.0259Z" fill="#8A9BA8"/>
<path d="M30.0007 15.9702C26.8713 15.9702 23.7323 15.2319 21.7417 13.6621C21.7383 13.7183 21.7109 13.7666 21.7109 13.824C21.7109 16.6429 25.8813 18.116 30.0007 18.116C34.1202 18.116 38.2901 16.6429 38.2901 13.824C38.2901 13.7666 38.2632 13.7183 38.2598 13.6621C36.2687 15.2319 33.1298 15.9702 30.0007 15.9702Z" fill="#8A9BA8"/>
<path d="M54.1665 2.02539H45.8332C43.3332 2.02539 41.6665 3.69206 41.6665 6.19206V11.1921C41.6665 13.6921 43.3332 15.3587 45.8332 15.3587V17.1337C45.8332 17.8004 46.5748 18.2004 47.1248 17.8254L50.8332 15.3587H54.1665C56.6665 15.3587 58.3332 13.6921 58.3332 11.1921V6.19206C58.3332 3.69206 56.6665 2.02539 54.1665 2.02539ZM49.9998 12.1671C49.6498 12.1671 49.3748 11.8837 49.3748 11.5421C49.3748 11.2004 49.6498 10.9171 49.9998 10.9171C50.3498 10.9171 50.6248 11.2004 50.6248 11.5421C50.6248 11.8837 50.3498 12.1671 49.9998 12.1671ZM51.0498 8.70872C50.7248 8.92539 50.6248 9.06706 50.6248 9.30039V9.47539C50.6248 9.81706 50.3415 10.1004 49.9998 10.1004C49.6582 10.1004 49.3748 9.81706 49.3748 9.47539V9.30039C49.3748 8.33372 50.0832 7.85872 50.3498 7.67539C50.6582 7.46706 50.7582 7.32539 50.7582 7.10872C50.7582 6.69206 50.4165 6.35039 49.9998 6.35039C49.5832 6.35039 49.2415 6.69206 49.2415 7.10872C49.2415 7.45039 48.9582 7.73372 48.6165 7.73372C48.2748 7.73372 47.9915 7.45039 47.9915 7.10872C47.9915 6.00039 48.8915 5.10039 49.9998 5.10039C51.1082 5.10039 52.0082 6.00039 52.0082 7.10872C52.0082 8.05872 51.3082 8.53372 51.0498 8.70872Z" fill="#8A9BA8"/>
<path d="M15 23.514C13.1675 23.1882 11.2704 23.3329 9.52466 23.9316V23.9316L9.50272 23.9397C9.34532 23.9933 9.1918 24.0561 9.03827 24.1131L8.99699 24.1294C8.84217 24.1934 8.68864 24.2597 8.53641 24.3295L8.49641 24.3492C8.34805 24.4179 8.20226 24.4912 8.05648 24.5656L7.99197 24.6028C7.86296 24.6715 7.73394 24.7424 7.61267 24.8157L7.54946 24.8506C6.99748 25.183 6.48324 25.5637 6.01419 25.9872V25.9872C6.00883 25.9909 6.00406 25.9952 6 26C6.01935 25.9604 6.03612 25.9197 6.05418 25.8837L6.06451 25.8639C6.14966 25.6917 6.24125 25.5242 6.34059 25.3567C6.92291 24.3756 7.7153 23.5085 8.67187 22.8055L8.8383 22.6892L8.9557 22.6066L9.05891 22.5391L9.24727 22.4228C9.34145 22.3623 9.43692 22.3064 9.53368 22.2506L9.544 22.2436C9.64592 22.1854 9.74785 22.1273 9.85106 22.0749C10.9585 21.4926 12.1892 21.1264 13.4634 21C14.1352 21.7503 14.6553 22.6012 15 23.514Z" fill="white"/>
<path d="M16.5985 33.8735C16.6103 33.6788 16.6174 33.4853 16.6174 33.2941C16.6175 32.2019 16.4152 31.1188 16.0205 30.0978V30.0978L16.0134 30.0816C15.9627 29.9552 15.912 29.8289 15.8566 29.7061C15.8294 29.6435 15.7988 29.5832 15.7728 29.5276C15.7469 29.472 15.7256 29.4221 15.6973 29.3642L15.6785 29.3283L15.6431 29.2599L15.636 29.2448V29.2367V29.2298V29.2228V29.217C15.6207 29.1869 15.6053 29.1567 15.5888 29.1266C15.5652 29.0814 15.5416 29.0374 15.5145 28.9922V28.9829L15.4992 28.9597C15.4685 28.9053 15.4367 28.8438 15.4024 28.7905C15.3612 28.721 15.3163 28.648 15.268 28.5738C15.2243 28.5054 15.1795 28.4359 15.1335 28.3664V28.3594L15.1276 28.3525C15.1076 28.3223 15.0828 28.2841 15.0533 28.2435L15.038 28.2215V28.2134L15.0144 28.1809C14.9778 28.1288 14.9401 28.0778 14.8964 28.0245V28.0164C14.8622 27.97 14.8268 27.9248 14.7891 27.8785L14.7348 27.8101C14.7018 27.766 14.6664 27.722 14.6287 27.6791L14.611 27.6583C14.5709 27.6084 14.5272 27.5574 14.4801 27.5041C14.3314 27.3349 14.1746 27.1715 14.0083 27.0081C14.0083 27.0081 14.0083 27.0081 14 27C14.0436 27.0185 14.0908 27.0359 14.1356 27.0568C15.7099 27.7613 17.0276 28.9213 17.9125 30.3817V30.3817C18.5021 31.3767 18.8725 32.4822 19 33.6267C18.2372 34.2279 17.3729 34.6928 16.4463 35C16.4463 34.9699 16.4558 34.9409 16.4593 34.9166C16.4711 34.8551 16.4829 34.7937 16.4947 34.7288V34.7219C16.5254 34.5341 16.5501 34.3452 16.569 34.1563C16.569 34.1007 16.5773 34.0497 16.5808 33.9999C16.5843 33.95 16.5914 33.9199 16.5985 33.8735Z" fill="white"/>
<path d="M14 34C13.991 34.0174 13.9832 34.036 13.9742 34.0534C13.9652 34.0708 13.9472 34.1149 13.9356 34.1381C13.1412 35.7252 11.8167 37.0495 10.1469 37.9264C9.03803 38.5077 7.80626 38.8735 6.53093 39C5.86166 38.248 5.34354 37.3965 5 36.4837C5.62973 36.5938 6.26962 36.6497 6.91108 36.6509C8.12632 36.6532 9.3319 36.4565 10.4691 36.0706C10.6173 36.0195 10.7629 35.9638 10.9072 35.9081L10.9381 35.8965C11.0155 35.8651 11.0915 35.835 11.1611 35.8048H11.1675H11.1765L11.3273 35.7398L11.3402 35.734L11.366 35.7224L11.3866 35.7131L11.482 35.669L11.4961 35.662H11.5039L11.5142 35.6562H11.5271L11.6302 35.6063C11.6693 35.5873 11.7049 35.5631 11.7358 35.5344L11.7487 35.5274L11.9201 35.4403L11.9459 35.4264L12.0077 35.3928L12.1366 35.3266L12.1662 35.3115C12.1804 35.3022 12.2088 35.2871 12.2397 35.2697L12.433 35.1537H12.4407H12.4485C12.5064 35.1165 12.5696 35.0782 12.634 35.0376C12.6881 35.0039 12.7397 34.9703 12.7874 34.9378C12.8763 34.8798 12.9613 34.8217 13.0451 34.7614L13.0606 34.7498H13.067L13.1959 34.6534L13.2139 34.6407C13.2719 34.5989 13.3273 34.5559 13.3789 34.5153C13.5696 34.3691 13.7539 34.2159 13.933 34.0511L14 34Z" fill="white"/>
<path d="M6 34L5.89888 33.9549L5.8675 33.9407C4.51999 33.268 3.35707 32.2114 2.49698 30.8784C2.34472 30.6424 2.2006 30.4 2.06811 30.1486V30.1395C1.48893 29.032 1.12509 27.8022 1 26.5292C1.7531 25.8603 2.60587 25.3428 3.51976 25C3.19412 26.8315 3.33911 28.7277 3.93817 30.4722C4.17358 31.1689 4.48008 31.8334 4.8517 32.4527V32.4527C5.1837 33.0048 5.56406 33.5192 5.98722 33.9884C5.98853 33.9912 5.99033 33.9937 5.99253 33.9957C5.99473 33.9977 5.99727 33.9991 6 34V34Z" fill="white"/>
<path d="M9 21.8739C7.47608 22.8928 6.26917 24.3137 5.51525 25.9766C4.94719 27.2315 4.65352 28.5916 4.65358 29.9673V30C4.63454 29.9496 4.61044 29.9005 4.59267 29.8527C3.91825 28.0849 3.81665 26.1523 4.30206 24.3245C4.6237 23.1107 5.19969 21.9779 5.9924 21C7.03854 21.1154 8.05635 21.4112 9 21.8739Z" fill="white"/>
<path d="M19 25.9675C18.8821 27.0227 18.5838 28.0489 18.1185 29C16.9046 27.1696 15.1248 25.8017 13.06 25.1122V25.1122C13.0097 25.0943 12.9605 25.0803 12.9127 25.0649L12.754 25.0163H12.7465H12.7326C12.6495 24.9908 12.5677 24.969 12.4808 24.9473C12.3939 24.9256 12.3108 24.9026 12.2214 24.8834H12.2125L11.9493 24.8246H11.938H11.9305C11.8927 24.8246 11.8461 24.808 11.7894 24.7977H11.763H11.7466H11.7378H11.729H11.6912H11.6849C11.6207 24.7849 11.559 24.7747 11.4796 24.7645H11.4671C11.4053 24.753 11.3411 24.744 11.2819 24.7376C11.2404 24.7376 11.2064 24.7274 11.1837 24.7261C11.1258 24.7172 11.0666 24.7108 11.0062 24.7057H10.9797C10.9117 24.6993 10.8412 24.6916 10.7631 24.6878C10.5213 24.6686 10.2758 24.6597 10.029 24.6597H10L10.1448 24.597C11.9131 23.9177 13.846 23.8153 15.6743 24.3042C16.8846 24.6181 18.0173 25.1846 19 25.9675Z" fill="white"/>
<path d="M16 33.3356C16.002 35.3949 15.2994 37.3932 14.0084 39C12.9622 38.8834 11.9443 38.5864 11 38.1224C12.5218 37.0963 13.7278 35.6683 14.4831 33.9979V33.9979C14.5529 33.8485 14.6164 33.694 14.6786 33.5382C14.7091 33.4597 14.737 33.3837 14.7636 33.3115V33.3001C14.7814 33.2457 14.8005 33.195 14.817 33.1444V33.1355V33.1165C14.8335 33.0684 14.8474 33.0228 14.8614 32.981L14.8703 32.9531C14.8919 32.8886 14.9147 32.8189 14.9337 32.7442C14.9591 32.6644 14.9782 32.5872 14.9985 32.5087C14.9985 32.4985 15.0099 32.4719 15.0175 32.4403C15.0251 32.4086 15.0429 32.3415 15.0531 32.2984L15.0607 32.268C15.0607 32.2516 15.0721 32.2225 15.0797 32.1845C15.0962 32.1123 15.1114 32.0376 15.1279 31.9629V31.954V31.9413C15.1406 31.8704 15.1571 31.7944 15.1698 31.7147C15.1825 31.6488 15.1914 31.588 15.2016 31.5234C15.2193 31.4158 15.232 31.3132 15.2447 31.2081V31.1853C15.2523 31.1283 15.2574 31.0739 15.265 31.0156V30.9776C15.2727 30.9042 15.2777 30.8295 15.2841 30.7598C15.3018 30.5158 15.3107 30.2689 15.3107 30.019V30C15.331 30.0507 15.3526 30.1 15.3729 30.1507C15.7709 31.1664 15.9833 32.2451 16 33.3356V33.3356Z" fill="white"/>
<path d="M10 35.3413L9.85139 35.4034C8.38316 35.9675 6.79407 36.1354 5.24153 35.8907C3.689 35.646 2.22688 34.9971 1 34.0083C1.11651 32.9613 1.41492 31.943 1.88161 31C2.89981 32.5223 4.31951 33.7284 5.98111 34.4827C6.64562 34.7853 7.34247 35.01 8.05793 35.1523C8.69378 35.2826 9.34105 35.348 9.98992 35.3476L10 35.3413Z" fill="white"/>
<path d="M21.7109 26.1101C21.7109 28.9286 25.8813 30.4021 30.0007 30.4021C34.1202 30.4021 38.2901 28.9286 38.2901 26.1101C38.2901 20.475 21.7109 20.475 21.7109 26.1101Z" fill="white"/>
<path d="M30.0007 32.0259C26.8713 32.0259 23.7323 31.2875 21.7417 29.7178C21.7383 29.7744 21.7109 29.8223 21.7109 29.8801C21.7109 32.6986 25.8813 34.1717 30.0007 34.1717C34.1202 34.1717 38.2901 32.6986 38.2901 29.8801C38.2901 31.1103 38.2598 29.7178 38.2598 29.7178C36.2687 31.2875 33.1298 32.0259 30.0007 32.0259Z" fill="white"/>
<path d="M30.0007 35.9702C26.8713 35.9702 23.7323 35.2319 21.7417 33.6621C21.7383 33.7183 21.7109 33.7666 21.7109 33.824C21.7109 36.6429 25.8813 38.116 30.0007 38.116C34.1202 38.116 38.2901 36.6429 38.2901 33.824C38.2901 33.7666 38.2632 33.7183 38.2598 33.6621C36.2687 35.2319 33.1298 35.9702 30.0007 35.9702Z" fill="white"/>
<path d="M54.1665 22.0254H45.8332C43.3332 22.0254 41.6665 23.6921 41.6665 26.1921V31.1921C41.6665 33.6921 43.3332 35.3587 45.8332 35.3587V37.1337C45.8332 37.8004 46.5748 38.2004 47.1248 37.8254L50.8332 35.3587H54.1665C56.6665 35.3587 58.3332 33.6921 58.3332 31.1921V26.1921C58.3332 23.6921 56.6665 22.0254 54.1665 22.0254ZM49.9998 32.1671C49.6498 32.1671 49.3748 31.8837 49.3748 31.5421C49.3748 31.2004 49.6498 30.9171 49.9998 30.9171C50.3498 30.9171 50.6248 31.2004 50.6248 31.5421C50.6248 31.8837 50.3498 32.1671 49.9998 32.1671ZM51.0498 28.7087C50.7248 28.9254 50.6248 29.0671 50.6248 29.3004V29.4754C50.6248 29.8171 50.3415 30.1004 49.9998 30.1004C49.6582 30.1004 49.3748 29.8171 49.3748 29.4754V29.3004C49.3748 28.3337 50.0832 27.8587 50.3498 27.6754C50.6582 27.4671 50.7582 27.3254 50.7582 27.1087C50.7582 26.6921 50.4165 26.3504 49.9998 26.3504C49.5832 26.3504 49.2415 26.6921 49.2415 27.1087C49.2415 27.4504 48.9582 27.7337 48.6165 27.7337C48.2748 27.7337 47.9915 27.4504 47.9915 27.1087C47.9915 26.0004 48.8915 25.1004 49.9998 25.1004C51.1082 25.1004 52.0082 26.0004 52.0082 27.1087C52.0082 28.0587 51.3082 28.5337 51.0498 28.7087Z" fill="white"/>
</svg>
