<svg width="21" height="20" viewBox="0 0 21 20" fill="none" xmlns="http://www.w3.org/2000/svg">
<g clip-path="url(#clip0_45_10026)">
<path d="M12.9366 0.332577C12.2715 0.120937 11.5458 0 10.8051 0C8.67359 0 6.75371 0.967498 5.46875 2.49433L8.76429 5.26077L12.9366 0.332577Z" fill="#1A73E8"/>
<path d="M5.46859 2.49414C4.45574 3.70351 3.83594 5.2757 3.83594 6.96882C3.83594 8.28401 4.09293 9.34221 4.53133 10.2946L8.76413 5.26058L5.46859 2.49414Z" fill="#EA4335"/>
<path d="M10.8216 4.30784C12.303 4.30784 13.4973 5.5021 13.4973 6.98358C13.4973 7.63362 13.2554 8.2383 12.8624 8.70694C12.8624 8.70694 14.9637 6.19749 17.0196 3.76363C16.173 2.13097 14.7067 0.891366 12.938 0.332031L8.76562 5.26022C9.26449 4.68577 9.99012 4.30784 10.8216 4.30784Z" fill="#4285F4"/>
<path d="M10.82 9.64569C9.33851 9.64569 8.14425 8.45144 8.14425 6.96996C8.14425 6.31992 8.37101 5.71523 8.76405 5.26172L4.53125 10.2957C5.25687 11.8982 6.46625 13.1982 7.70585 14.8158L12.8608 8.69331C12.3619 9.28288 11.6363 9.64569 10.82 9.64569Z" fill="#FBBC04"/>
<path d="M12.7674 16.5074C15.0954 12.8642 17.8014 11.2164 17.8014 6.98363C17.8014 5.81961 17.5142 4.73117 17.0153 3.76367L7.70312 14.8143C8.09617 15.3283 8.50433 15.9179 8.89738 16.5226C10.3184 18.7145 9.92535 20.0146 10.8324 20.0146C11.7394 20.0146 11.3464 18.6994 12.7674 16.5074Z" fill="#34A853"/>
</g>
<defs>
<clipPath id="clip0_45_10026">
<rect width="20" height="20" fill="white" transform="translate(0.5)"/>
</clipPath>
</defs>
</svg>
