<svg width="480" height="24" viewBox="0 0 480 24" fill="none" xmlns="http://www.w3.org/2000/svg">
<g clip-path="url(#clip0_211_6152)">
<path d="M0.746582 16.1743C2.4421 20.7439 6.84061 24.0004 12.0002 24.0004C17.1598 24.0004 21.5583 20.7439 23.2538 16.1743L12.0002 15.1309L0.746582 16.1743Z" fill="#FFDA44"/>
<path d="M12.0002 0C6.84061 0 2.4421 3.2565 0.746582 7.82611L12.0002 8.86955L23.2538 7.82606C21.5583 3.2565 17.1598 0 12.0002 0Z" fill="black"/>
<path d="M0.746391 7.82617C0.264047 9.12616 0 10.5322 0 12.0001C0 13.4679 0.264047 14.874 0.746391 16.174H23.2537C23.736 14.874 24 13.4679 24 12.0001C24 10.5322 23.736 9.12616 23.2536 7.82617H0.746391Z" fill="#D80027"/>
</g>
<g clip-path="url(#clip1_211_6152)">
<path d="M36 24C42.6274 24 48 18.6274 48 12C48 5.37258 42.6274 0 36 0C29.3726 0 24 5.37258 24 12C24 18.6274 29.3726 24 36 24Z" fill="#F0F0F0"/>
<path d="M26.4808 4.69434C25.5382 5.92073 24.8274 7.33424 24.4136 8.86982H30.6563L26.4808 4.69434Z" fill="#0052B4"/>
<path d="M47.5869 8.86977C47.173 7.33424 46.4622 5.92073 45.5196 4.69434L41.3442 8.86977H47.5869Z" fill="#0052B4"/>
<path d="M24.4136 15.1299C24.8275 16.6654 25.5382 18.0789 26.4808 19.3053L30.6562 15.1299H24.4136Z" fill="#0052B4"/>
<path d="M43.3058 2.48037C42.0794 1.53776 40.6659 0.826992 39.1304 0.413086V6.65576L43.3058 2.48037Z" fill="#0052B4"/>
<path d="M28.6943 21.5191C29.9207 22.4617 31.3342 23.1725 32.8698 23.5864V17.3438L28.6943 21.5191Z" fill="#0052B4"/>
<path d="M32.8697 0.413086C31.3342 0.826992 29.9207 1.53776 28.6943 2.48032L32.8697 6.65571V0.413086Z" fill="#0052B4"/>
<path d="M39.1309 23.5864C40.6664 23.1725 42.0799 22.4617 43.3063 21.5191L39.1309 17.3438V23.5864Z" fill="#0052B4"/>
<path d="M41.3442 15.1299L45.5196 19.3053C46.4622 18.079 47.173 16.6654 47.5869 15.1299H41.3442Z" fill="#0052B4"/>
<path d="M47.8984 10.4348H37.5653H37.5653V0.101578C37.0529 0.034875 36.5305 0 36 0C35.4694 0 34.9471 0.034875 34.4348 0.101578V10.4347V10.4347H24.1016C24.0349 10.9471 24 11.4695 24 12C24 12.5306 24.0349 13.0529 24.1016 13.5652H34.4347H34.4347V23.8984C34.9471 23.9651 35.4694 24 36 24C36.5305 24 37.0529 23.9652 37.5652 23.8984V13.5653V13.5653H47.8984C47.9651 13.0529 48 12.5306 48 12C48 11.4695 47.9651 10.9471 47.8984 10.4348Z" fill="#D80027"/>
<path d="M39.1304 15.1309L44.4852 20.4857C44.7315 20.2395 44.9664 19.9821 45.1906 19.7153L40.6061 15.1309H39.1304V15.1309Z" fill="#D80027"/>
<path d="M32.8695 15.1309H32.8694L27.5146 20.4856C27.7608 20.7319 28.0182 20.9668 28.285 21.191L32.8695 16.6064V15.1309Z" fill="#D80027"/>
<path d="M32.8698 8.8696V8.86951L27.5149 3.51465C27.2687 3.76084 27.0337 4.01823 26.8096 4.28504L31.3941 8.86955H32.8698V8.8696Z" fill="#D80027"/>
<path d="M39.1304 8.8698L44.4852 3.5149C44.239 3.26862 43.9817 3.03368 43.7148 2.80957L39.1304 7.39409V8.8698Z" fill="#D80027"/>
</g>
<mask id="mask0_211_6152" style="mask-type:luminance" maskUnits="userSpaceOnUse" x="48" y="0" width="24" height="24">
<circle cx="60" cy="12" r="12" fill="white"/>
</mask>
<g mask="url(#mask0_211_6152)">
<rect x="50.21" width="19.5789" height="24.3158" fill="white"/>
<path fill-rule="evenodd" clip-rule="evenodd" d="M64.71 -1.64453H77.6833V23.8595H64.71V-1.64453Z" fill="#EC2939"/>
<path fill-rule="evenodd" clip-rule="evenodd" d="M55.1383 -1.64453H42.2002V23.8605H55.1735V23.86H55.1383V-1.64453Z" fill="#002194"/>
</g>
<g clip-path="url(#clip2_211_6152)">
<path d="M72 11.9996C72 13.4674 72.264 14.8735 72.7464 16.1735L84 17.217L95.2536 16.1735C95.736 14.8735 96 13.4674 96 11.9996C96 10.5318 95.736 9.1257 95.2536 7.82571L84 6.78223L72.7464 7.82571C72.264 9.1257 72 10.5318 72 11.9996V11.9996Z" fill="#FFDA44"/>
<path d="M95.2538 7.82611C93.5583 3.25655 89.1598 0 84.0002 0C78.8406 0 74.4421 3.25655 72.7466 7.82611H95.2538Z" fill="#D80027"/>
<path d="M72.7466 16.1738C74.4421 20.7434 78.8406 23.9999 84.0002 23.9999C89.1598 23.9999 93.5583 20.7434 95.2538 16.1738H72.7466Z" fill="#D80027"/>
</g>
<g clip-path="url(#clip3_211_6152)">
<path d="M108 24C114.627 24 120 18.6274 120 12C120 5.37258 114.627 0 108 0C101.373 0 96 5.37258 96 12C96 18.6274 101.373 24 108 24Z" fill="#F0F0F0"/>
<path d="M120 11.9997C120 6.84013 116.743 2.44161 112.174 0.746094V23.2534C116.743 21.5578 120 17.1593 120 11.9997Z" fill="#D80027"/>
<path d="M96 11.9997C96 17.1593 99.2565 21.5578 103.826 23.2533V0.746094C99.2565 2.44161 96 6.84012 96 11.9997Z" fill="#6DA544"/>
</g>
<g clip-path="url(#clip4_211_6152)">
<path d="M120 11.9997C120 17.1592 123.257 21.5577 127.826 23.2533L128.87 11.9997L127.826 0.746094C123.257 2.44166 120 6.84013 120 11.9997Z" fill="#6DA544"/>
<path d="M144 12C144 5.37262 138.628 0 132 0C130.532 0 129.126 0.264047 127.826 0.746391V23.2536C129.126 23.736 130.532 24 132 24C138.628 24 144 18.6274 144 12Z" fill="#D80027"/>
<path d="M127.826 16.174C130.131 16.174 132 14.3052 132 12.0001C132 9.69489 130.131 7.82617 127.826 7.82617C125.521 7.82617 123.652 9.69489 123.652 12.0001C123.652 14.3052 125.521 16.174 127.826 16.174Z" fill="#FFDA44"/>
<path d="M125.479 9.91309V12.5218C125.479 13.8184 126.53 14.8696 127.826 14.8696C129.123 14.8696 130.174 13.8185 130.174 12.5218V9.91309H125.479Z" fill="#D80027"/>
<path d="M127.826 13.3046C127.395 13.3046 127.043 12.9535 127.043 12.522V11.4785H128.609V12.522C128.609 12.9535 128.258 13.3046 127.826 13.3046Z" fill="#F0F0F0"/>
</g>
<g clip-path="url(#clip5_211_6152)">
<path d="M156 24C162.627 24 168 18.6274 168 12C168 5.37258 162.627 0 156 0C149.373 0 144 5.37258 144 12C144 18.6274 149.373 24 156 24Z" fill="#D80027"/>
<path d="M155.509 9.80566L156.493 11.1625L158.088 10.6454L157.102 12.0011L158.086 13.3578L156.492 12.8388L155.506 14.1944L155.507 12.5181L153.913 11.9991L155.508 11.4821L155.509 9.80566Z" fill="#F0F0F0"/>
<path d="M152.821 15.3914C150.949 15.3914 149.43 13.873 149.43 12.0001C149.43 10.1272 150.949 8.6088 152.821 8.6088C153.405 8.6088 153.955 8.7565 154.435 9.01642C153.682 8.28039 152.653 7.82617 151.517 7.82617C149.212 7.82617 147.343 9.69489 147.343 12.0001C147.343 14.3052 149.212 16.174 151.517 16.174C152.653 16.174 153.682 15.7197 154.435 14.9837C153.955 15.2437 153.405 15.3914 152.821 15.3914Z" fill="#F0F0F0"/>
</g>
<g clip-path="url(#clip6_211_6152)">
<path d="M180 24C186.627 24 192 18.6274 192 12C192 5.37258 186.627 0 180 0C173.373 0 168 5.37258 168 12C168 18.6274 173.373 24 180 24Z" fill="#F0F0F0"/>
<path d="M191.254 16.174C191.736 14.874 192 13.4679 192 12.0001C192 10.5322 191.736 9.12616 191.254 7.82617H168.746C168.264 9.12616 168 10.5322 168 12.0001C168 13.4679 168.264 14.874 168.746 16.174L180 17.2174L191.254 16.174Z" fill="#0052B4"/>
<path d="M180 23.9999C185.16 23.9999 189.558 20.7434 191.254 16.1738H168.747C170.442 20.7434 174.841 23.9999 180 23.9999Z" fill="#D80027"/>
</g>
<circle cx="204" cy="12" r="12" fill="white"/>
<mask id="mask1_211_6152" style="mask-type:luminance" maskUnits="userSpaceOnUse" x="192" y="0" width="24" height="24">
<circle cx="204" cy="12" r="12" fill="white"/>
</mask>
<g mask="url(#mask1_211_6152)">
<path d="M235.186 -0.310547H187.629V23.6678H235.186V-0.310547Z" fill="#00732F"/>
<path d="M235.186 7.68262H187.629V23.6682H235.186V7.68262Z" fill="white"/>
<path d="M235.329 15.79H187.729V25.8953H235.329V15.79Z" fill="black"/>
<path d="M199.518 -0.310547H187.629V23.6678H199.518V-0.310547Z" fill="#FF0000"/>
</g>
<g clip-path="url(#clip7_211_6152)">
<path d="M228 24C234.627 24 240 18.6274 240 12C240 5.37258 234.627 0 228 0C221.373 0 216 5.37258 216 12C216 18.6274 221.373 24 228 24Z" fill="#D80027"/>
<path d="M222.567 7.30273L223.603 10.4902H226.955L224.245 12.4637L225.281 15.6512L222.567 13.6824L219.853 15.6512L220.894 12.4637L218.18 10.4902H221.531L222.567 7.30273Z" fill="#FFDA44"/>
<path d="M230.226 18.5857L229.434 17.6107L228.262 18.0654L228.942 17.0107L228.15 16.0311L229.364 16.3545L230.048 15.2998L230.114 16.5561L231.333 16.8795L230.156 17.3295L230.226 18.5857Z" fill="#FFDA44"/>
<path d="M231.801 15.7264L232.176 14.5264L231.15 13.7998L232.406 13.7811L232.776 12.5811L233.184 13.7717L234.441 13.7576L233.433 14.5076L233.836 15.6982L232.809 14.9717L231.801 15.7264Z" fill="#FFDA44"/>
<path d="M233.925 8.80723L233.372 9.93691L234.272 10.8135L233.03 10.6354L232.477 11.7604L232.261 10.5229L231.014 10.3447L232.13 9.75879L231.914 8.5166L232.814 9.39316L233.925 8.80723Z" fill="#FFDA44"/>
<path d="M230.259 5.38574L230.165 6.63731L231.333 7.11074L230.109 7.41074L230.02 8.66699L229.359 7.59824L228.136 7.89824L228.947 6.9373L228.281 5.87324L229.448 6.34668L230.259 5.38574Z" fill="#FFDA44"/>
</g>
<g clip-path="url(#clip8_211_6152)">
<path d="M252 24C258.627 24 264 18.6274 264 12C264 5.37258 258.627 0 252 0C245.373 0 240 5.37258 240 12C240 18.6274 245.373 24 252 24Z" fill="#F0F0F0"/>
<path d="M263.254 7.82617H240.746C240.264 9.12616 240 10.5322 240 12.0001C240 13.4679 240.264 14.874 240.746 16.174H263.254C263.736 14.874 264 13.4679 264 12.0001C264 10.5322 263.736 9.12616 263.254 7.82617Z" fill="#0052B4"/>
<path d="M252 0C248.363 0 245.104 1.61831 242.903 4.17389H261.096C258.896 1.61831 255.637 0 252 0Z" fill="#D80027"/>
<path d="M261.097 19.8262H242.903C245.104 22.3818 248.363 24.0001 252 24.0001C255.637 24.0001 258.896 22.3818 261.097 19.8262Z" fill="#D80027"/>
</g>
<g clip-path="url(#clip9_211_6152)">
<path d="M276 24C282.627 24 288 18.6274 288 12C288 5.37258 282.627 0 276 0C269.373 0 264 5.37258 264 12C264 18.6274 269.373 24 276 24Z" fill="#F0F0F0"/>
<path d="M279.898 8.86919H278.328C278.341 9.04173 278.348 9.21583 278.348 9.39091C278.348 10.5517 278.058 11.6769 277.552 12.4778C277.396 12.7248 277.134 13.0736 276.783 13.309V8.86914H275.217V13.309C274.866 13.0736 274.604 12.7248 274.448 12.4778C273.942 11.6769 273.652 10.5517 273.652 9.39091C273.652 9.21583 273.66 9.04169 273.673 8.86919H272.102C272.092 9.04089 272.087 9.2148 272.087 9.39091C272.087 12.6092 273.806 15.13 276 15.13C278.194 15.13 279.913 12.6092 279.913 9.39091C279.913 9.2148 279.908 9.04089 279.898 8.86919Z" fill="#D80027"/>
<path d="M268.957 5.73914H270.522V6.78263H272.087V5.73914H273.652V6.78263H275.218V5.73914H276.783V6.78263H278.348V5.73914H279.913V6.78263H281.478V5.73914H283.044V6.78263H286.809C284.868 2.76867 280.758 0 276 0C271.243 0 267.132 2.76867 265.191 6.78263H268.957V5.73914Z" fill="#6DA544"/>
<path d="M283.044 17.2178V18.2613H281.478V17.2178H279.913V18.2613H278.348V17.2178H276.783V18.2613H275.218V17.2178H273.652V18.2613H272.087V17.2178H270.522V18.2613H268.957V17.2178H265.191C267.132 21.2317 271.243 24.0004 276 24.0004C280.758 24.0004 284.868 21.2317 286.809 17.2178H283.044Z" fill="#D80027"/>
</g>
<g clip-path="url(#clip10_211_6152)">
<path d="M300 24C306.627 24 312 18.6274 312 12C312 5.37258 306.627 0 300 0C293.373 0 288 5.37258 288 12C288 18.6274 293.373 24 300 24Z" fill="#D80027"/>
<path d="M300 6.26074L301.295 10.2465H305.486L302.095 12.7098L303.391 16.6955L300 14.2322L296.61 16.6955L297.905 12.7098L294.514 10.2465H298.705L300 6.26074Z" fill="#FFDA44"/>
</g>
<g clip-path="url(#clip11_211_6152)">
<path d="M324 24C330.627 24 336 18.6274 336 12C336 5.37258 330.627 0 324 0C317.373 0 312 5.37258 312 12C312 18.6274 317.373 24 324 24Z" fill="#F0F0F0"/>
<path d="M324 0C319.243 0 315.132 2.76867 313.191 6.78263H334.809C332.868 2.76867 328.758 0 324 0Z" fill="#FF9811"/>
<path d="M324 24.0004C328.758 24.0004 332.868 21.2317 334.809 17.2178H313.191C315.132 21.2317 319.243 24.0004 324 24.0004Z" fill="#6DA544"/>
<path d="M324 16.174C326.305 16.174 328.174 14.3052 328.174 12.0001C328.174 9.69489 326.305 7.82617 324 7.82617C321.695 7.82617 319.826 9.69489 319.826 12.0001C319.826 14.3052 321.695 16.174 324 16.174Z" fill="#0052B4"/>
<path d="M324 14.609C325.441 14.609 326.608 13.441 326.608 12.0003C326.608 10.5596 325.441 9.3916 324 9.3916C322.559 9.3916 321.391 10.5596 321.391 12.0003C321.391 13.441 322.559 14.609 324 14.609Z" fill="#F0F0F0"/>
<path d="M324 8.78125L324.805 10.6065L326.788 10.3908L325.61 12.0003L326.788 13.6099L324.805 13.3942L324 15.2194L323.195 13.3942L321.212 13.6098L322.391 12.0003L321.212 10.3908L323.195 10.6065L324 8.78125Z" fill="#0052B4"/>
</g>
<g clip-path="url(#clip12_211_6152)">
<path d="M348 24C354.627 24 360 18.6274 360 12C360 5.37258 354.627 0 348 0C341.373 0 336 5.37258 336 12C336 18.6274 341.373 24 348 24Z" fill="#F0F0F0"/>
<path d="M348 17.217C350.882 17.217 353.217 14.8811 353.217 11.9996C353.217 9.11812 350.882 6.78223 348 6.78223C345.119 6.78223 342.783 9.11812 342.783 11.9996C342.783 14.8811 345.119 17.217 348 17.217Z" fill="#D80027"/>
</g>
<g clip-path="url(#clip13_211_6152)">
<path d="M384 12C384 18.6274 378.627 24 372 24C365.373 24 360 18.6274 360 12C364.122 7.87828 367.617 4.38263 372 0C378.627 0 384 5.37262 384 12Z" fill="#D80027"/>
<path d="M372 12C372 5.37262 372 4.59131 372 0C365.373 0 360 5.37262 360 12H372Z" fill="#0052B4"/>
<path d="M370.435 7.02317L368.969 7.71261L369.75 9.13194L368.158 8.82744L367.957 10.4351L366.848 9.25273L365.74 10.4351L365.538 8.82744L363.947 9.13184L364.727 7.71251L363.262 7.02317L364.727 6.33387L363.947 4.9145L365.538 5.21895L365.74 3.61133L366.848 4.7937L367.957 3.61133L368.158 5.21895L369.75 4.9145L368.969 6.33392L370.435 7.02317Z" fill="#F0F0F0"/>
<path d="M366.848 9.25653C368.082 9.25653 369.082 8.25645 369.082 7.0228C369.082 5.78914 368.082 4.78906 366.848 4.78906C365.615 4.78906 364.615 5.78914 364.615 7.0228C364.615 8.25645 365.615 9.25653 366.848 9.25653Z" fill="#0052B4"/>
<path d="M366.848 8.21351C366.192 8.21351 365.658 7.67955 365.658 7.02326C365.658 6.36696 366.192 5.83301 366.848 5.83301C367.504 5.83301 368.038 6.36696 368.038 7.02326C368.038 7.67955 367.504 8.21351 366.848 8.21351Z" fill="#F0F0F0"/>
</g>
<g clip-path="url(#clip14_211_6152)">
<path d="M400.174 0.746344C398.874 0.264047 397.468 6.23894e-09 396 6.23894e-09C394.532 -4.68688e-05 393.126 0.264047 391.826 0.746344L390.783 12L391.826 23.2536C393.126 23.736 394.532 24 396 24C397.468 24 398.874 23.736 400.174 23.2536L401.217 12L400.174 0.746344Z" fill="#FFDA44"/>
<path d="M408 11.9997C408 6.84017 404.743 2.44156 400.174 0.746094V23.2534C404.743 21.5578 408 17.1593 408 11.9997Z" fill="#D80027"/>
<path d="M384 11.9996C384 17.1593 387.256 21.5577 391.826 23.2533L391.826 0.746094C387.256 2.44156 384 6.84003 384 11.9996V11.9996Z" fill="#0052B4"/>
</g>
<g clip-path="url(#clip15_211_6152)">
<path d="M420 24C426.627 24 432 18.6274 432 12C432 5.37258 426.627 0 420 0C413.373 0 408 5.37258 408 12C408 18.6274 413.373 24 420 24Z" fill="#F0F0F0"/>
<path d="M424.174 12.0001C424.174 13.0435 422.305 15.6522 420 15.6522C417.695 15.6522 415.826 13.0435 415.826 12.0001C415.826 9.69484 417.695 7.82617 420 7.82617C422.305 7.82617 424.174 9.69484 424.174 12.0001Z" fill="#D80027"/>
<path d="M424.174 12C424.174 14.3052 422.305 16.1739 420 16.1739C417.695 16.1739 415.826 14.3052 415.826 12" fill="#0052B4"/>
<path d="M424.424 15.6895L425.53 14.5829L426.268 15.3206L425.162 16.4272L424.424 15.6895Z" fill="black"/>
<path d="M422.579 17.5342L423.686 16.4276L424.423 17.1653L423.317 18.2719L422.579 17.5342Z" fill="black"/>
<path d="M426.637 17.9023L427.744 16.7957L428.482 17.5335L427.375 18.6401L426.637 17.9023Z" fill="black"/>
<path d="M424.792 19.7471L425.899 18.6405L426.637 19.3782L425.53 20.4848L424.792 19.7471Z" fill="black"/>
<path d="M425.53 16.7959L426.637 15.6893L427.375 16.427L426.268 17.5336L425.53 16.7959Z" fill="black"/>
<path d="M423.686 18.6406L424.793 17.534L425.53 18.2718L424.424 19.3784L423.686 18.6406Z" fill="black"/>
<path d="M426.642 8.3125L423.691 5.36156L424.429 4.62382L427.38 7.57476L426.642 8.3125Z" fill="black"/>
<path d="M423.69 7.5752L422.584 6.4686L423.322 5.73089L424.428 6.83748L423.69 7.5752Z" fill="black"/>
<path d="M425.535 9.41992L424.429 8.31332L425.166 7.57561L426.273 8.68221L425.535 9.41992Z" fill="black"/>
<path d="M425.903 5.36133L424.797 4.25473L425.534 3.51699L426.641 4.62358L425.903 5.36133Z" fill="black"/>
<path d="M427.749 7.20703L426.642 6.10043L427.38 5.36269L428.487 6.46929L427.749 7.20703Z" fill="black"/>
<path d="M412.254 16.7939L415.205 19.7449L414.467 20.4826L411.516 17.5317L412.254 16.7939Z" fill="black"/>
<path d="M415.205 17.5312L416.312 18.6378L415.574 19.3756L414.467 18.269L415.205 17.5312Z" fill="black"/>
<path d="M413.36 15.6875L414.467 16.7941L413.729 17.5318L412.623 16.4252L413.36 15.6875Z" fill="black"/>
<path d="M414.467 14.5801L417.418 17.531L416.68 18.2688L413.73 15.3178L414.467 14.5801Z" fill="black"/>
<path d="M415.205 4.25293L412.254 7.20387L411.516 6.46613L414.467 3.51519L415.205 4.25293Z" fill="black"/>
<path d="M416.312 5.35938L413.361 8.31032L412.623 7.57257L415.574 4.62163L416.312 5.35938Z" fill="black"/>
<path d="M417.419 6.4668L414.468 9.41774L413.73 8.68003L416.681 5.72909L417.419 6.4668Z" fill="black"/>
</g>
<g clip-path="url(#clip16_211_6152)">
<path d="M456 12C456 18.6274 450.627 24 444 24C437.373 24 432 18.6274 432 12C432 12.0029 444 0.0013125 444 0C450.627 0 456 5.37262 456 12Z" fill="#0052B4"/>
<path d="M443.968 11.9999H444C444 11.9891 444 11.9786 444 11.9678C443.989 11.9785 443.979 11.9892 443.968 11.9999Z" fill="#F0F0F0"/>
<path d="M444 6.26086C444 4.14938 444 2.76586 444 0H443.998C437.371 0.001125 432 5.37323 432 12H438.261V8.47448L441.786 12H443.968C443.979 11.9893 443.989 11.9786 444 11.9679C444 11.1594 444 10.4381 444 9.78647L440.474 6.26086H444Z" fill="#F0F0F0"/>
<path d="M438.071 1.56543C436.194 2.63413 434.634 4.19441 433.565 6.07124V12.0002H436.696V4.69598V4.69588H444C444 3.70855 444 2.76796 444 1.56543H438.071Z" fill="#D80027"/>
<path d="M444 10.5242L439.737 6.26074C439.737 6.26074 438.261 6.26084 438.261 6.26074V6.26084L444 11.9998H444C444 11.9998 444 10.9823 444 10.5242Z" fill="#D80027"/>
<path d="M452.781 8.9043L453.04 9.70145H453.878L453.2 10.1941L453.459 10.9912L452.781 10.4986L452.103 10.9912L452.362 10.1941L451.684 9.70145H452.522L452.781 8.9043Z" fill="#D80027"/>
<path d="M449.785 14.6436L450.173 15.8393H451.431L450.414 16.5783L450.802 17.774L449.785 17.035L448.768 17.774L449.156 16.5783L448.139 15.8393H449.396L449.785 14.6436Z" fill="#D80027"/>
<path d="M449.898 5.25195L450.222 6.24847H451.27L450.422 6.86417L450.746 7.86064L449.898 7.24475L449.051 7.86064L449.374 6.86417L448.527 6.24847H449.575L449.898 5.25195Z" fill="#D80027"/>
<path d="M447.015 8.87012L447.404 10.0659H448.661L447.644 10.8048L448.033 12.0006L447.015 11.2616L445.998 12.0006L446.387 10.8048L445.37 10.0659H446.627L447.015 8.87012Z" fill="#D80027"/>
</g>
<g clip-path="url(#clip17_211_6152)">
<path d="M468 24C474.627 24 480 18.6274 480 12C480 5.37258 474.627 0 468 0C461.373 0 456 5.37258 456 12C456 18.6274 461.373 24 468 24Z" fill="#F0F0F0"/>
<path d="M467.479 11.9996H480C480 10.9165 479.856 9.86725 479.587 8.86914H467.479V11.9996Z" fill="#D80027"/>
<path d="M467.479 5.73885H478.239C477.504 4.54016 476.565 3.48065 475.47 2.6084H467.479V5.73885Z" fill="#D80027"/>
<path d="M468 23.9993C470.824 23.9993 473.42 23.0232 475.47 21.3906H460.53C462.58 23.0232 465.176 23.9993 468 23.9993Z" fill="#D80027"/>
<path d="M457.761 18.2603H478.239C478.829 17.298 479.286 16.2462 479.587 15.1299H456.414C456.714 16.2462 457.172 17.298 457.761 18.2603V18.2603Z" fill="#D80027"/>
<path d="M461.559 1.87397H462.652L461.635 2.61295L462.024 3.80869L461.006 3.0697L459.989 3.80869L460.325 2.7757C459.429 3.52172 458.644 4.39575 457.997 5.36963H458.348L457.7 5.84002C457.599 6.0083 457.503 6.17925 457.41 6.35273L457.719 7.30434L457.142 6.88523C456.999 7.18903 456.868 7.49967 456.75 7.81678L457.091 8.86528H458.348L457.331 9.60427L457.719 10.8L456.702 10.061L456.093 10.5037C456.032 10.9939 456 11.4932 456 12H468C468 5.37262 468 4.59131 468 0C465.629 0 463.42 0.687656 461.559 1.87397V1.87397ZM462.024 10.8L461.006 10.061L459.989 10.8L460.378 9.60427L459.361 8.86528H460.618L461.006 7.66955L461.395 8.86528H462.652L461.635 9.60427L462.024 10.8ZM461.635 6.10861L462.024 7.30434L461.006 6.56536L459.989 7.30434L460.378 6.10861L459.361 5.36963H460.618L461.006 4.17389L461.395 5.36963H462.652L461.635 6.10861ZM466.328 10.8L465.311 10.061L464.294 10.8L464.682 9.60427L463.665 8.86528H464.922L465.311 7.66955L465.699 8.86528H466.957L465.939 9.60427L466.328 10.8ZM465.939 6.10861L466.328 7.30434L465.311 6.56536L464.294 7.30434L464.682 6.10861L463.665 5.36963H464.922L465.311 4.17389L465.699 5.36963H466.957L465.939 6.10861ZM465.939 2.61295L466.328 3.80869L465.311 3.0697L464.294 3.80869L464.682 2.61295L463.665 1.87397H464.922L465.311 0.678234L465.699 1.87397H466.957L465.939 2.61295Z" fill="#0052B4"/>
</g>
<defs>
<clipPath id="clip0_211_6152">
<rect width="24" height="24" fill="white"/>
</clipPath>
<clipPath id="clip1_211_6152">
<rect width="24" height="24" fill="white" transform="translate(24)"/>
</clipPath>
<clipPath id="clip2_211_6152">
<rect width="24" height="24" fill="white" transform="translate(72)"/>
</clipPath>
<clipPath id="clip3_211_6152">
<rect width="24" height="24" fill="white" transform="translate(96)"/>
</clipPath>
<clipPath id="clip4_211_6152">
<rect width="24" height="24" fill="white" transform="translate(120)"/>
</clipPath>
<clipPath id="clip5_211_6152">
<rect width="24" height="24" fill="white" transform="translate(144)"/>
</clipPath>
<clipPath id="clip6_211_6152">
<rect width="24" height="24" fill="white" transform="translate(168)"/>
</clipPath>
<clipPath id="clip7_211_6152">
<rect width="24" height="24" fill="white" transform="translate(216)"/>
</clipPath>
<clipPath id="clip8_211_6152">
<rect width="24" height="24" fill="white" transform="translate(240)"/>
</clipPath>
<clipPath id="clip9_211_6152">
<rect width="24" height="24" fill="white" transform="translate(264)"/>
</clipPath>
<clipPath id="clip10_211_6152">
<rect width="24" height="24" fill="white" transform="translate(288)"/>
</clipPath>
<clipPath id="clip11_211_6152">
<rect width="24" height="24" fill="white" transform="translate(312)"/>
</clipPath>
<clipPath id="clip12_211_6152">
<rect width="24" height="24" fill="white" transform="translate(336)"/>
</clipPath>
<clipPath id="clip13_211_6152">
<rect width="24" height="24" fill="white" transform="translate(360)"/>
</clipPath>
<clipPath id="clip14_211_6152">
<rect width="24" height="24" fill="white" transform="translate(384)"/>
</clipPath>
<clipPath id="clip15_211_6152">
<rect width="24" height="24" fill="white" transform="translate(408)"/>
</clipPath>
<clipPath id="clip16_211_6152">
<rect width="24" height="24" fill="white" transform="translate(432)"/>
</clipPath>
<clipPath id="clip17_211_6152">
<rect width="24" height="24" fill="white" transform="translate(456)"/>
</clipPath>
</defs>
</svg>
