<svg width="16" height="16" viewBox="0 0 16 16" fill="none" xmlns="http://www.w3.org/2000/svg">
<g clip-path="url(#clip0_907_23791)">
<path d="M11.9969 2.81098C10.5309 2.55038 9.01321 2.66614 7.6166 3.14508L7.59905 3.1516C7.47313 3.19441 7.35031 3.24466 7.22749 3.29027L7.19446 3.3033C7.07061 3.35448 6.94779 3.40753 6.826 3.46337L6.79401 3.47919C6.67531 3.5341 6.55869 3.59274 6.44206 3.6523L6.39045 3.68208C6.28724 3.73699 6.18403 3.79376 6.08701 3.85239L6.03644 3.88031C5.59486 4.14622 5.18346 4.45079 4.80823 4.78957C4.80394 4.7925 4.80012 4.79594 4.79688 4.7998C4.81236 4.76816 4.82577 4.73559 4.84022 4.70674L4.84848 4.69092C4.9166 4.55318 4.98987 4.41917 5.06935 4.28515C5.5352 3.5003 6.16911 2.80659 6.93437 2.2442L7.06752 2.15113L7.16144 2.08505L7.244 2.03108L7.39469 1.93801C7.47004 1.88962 7.54641 1.84494 7.62382 1.80027L7.63208 1.79469C7.71361 1.74815 7.79515 1.70162 7.87772 1.65974C8.76368 1.1939 9.7482 0.900942 10.7676 0.799805C11.305 1.40001 11.7211 2.08077 11.9969 2.81098Z" fill="white"/>
<path opacity="0.2" d="M13.2819 11.0989C13.2914 10.9432 13.297 10.7883 13.297 10.6354C13.2971 9.76161 13.1353 8.89514 12.8195 8.07832L12.8139 8.06534C12.7733 7.96429 12.7327 7.86323 12.6884 7.76495C12.6667 7.71489 12.6421 7.66668 12.6214 7.62218C12.6006 7.57767 12.5836 7.5378 12.561 7.49145L12.5459 7.46271L12.5176 7.40801L12.5119 7.39595V7.38946V7.3839V7.37834V7.3737C12.4997 7.3496 12.4874 7.32549 12.4742 7.30139C12.4553 7.26523 12.4364 7.23 12.4147 7.19384V7.18642L12.4025 7.16788C12.3779 7.1243 12.3524 7.07517 12.3251 7.03252C12.2921 6.97689 12.2562 6.91848 12.2175 6.85915C12.1826 6.80445 12.1467 6.74881 12.1099 6.69319V6.68762L12.1052 6.68206C12.0892 6.65796 12.0694 6.62736 12.0458 6.59491L12.0335 6.57729V6.5708L12.0146 6.54485C11.9854 6.50313 11.9552 6.46233 11.9203 6.41968V6.4132C11.8929 6.37611 11.8646 6.33995 11.8344 6.30287L11.791 6.24816C11.7646 6.21293 11.7363 6.1777 11.7061 6.1434L11.6919 6.12671C11.6598 6.08684 11.6249 6.04605 11.5872 6.0034C11.4683 5.86804 11.3428 5.73731 11.2097 5.60659C11.2097 5.60659 11.2097 5.60659 11.2031 5.6001C11.238 5.61493 11.2758 5.62884 11.3116 5.64553C12.571 6.20914 13.6252 7.13718 14.3331 8.30547C14.8048 9.10146 15.1012 9.98585 15.2031 10.9014C14.5929 11.3824 13.9014 11.7543 13.1602 12.0001C13.1602 11.976 13.1677 11.9528 13.1706 11.9333C13.18 11.8842 13.1894 11.8351 13.1989 11.7832V11.7776C13.2234 11.6274 13.2432 11.4763 13.2583 11.3251C13.2583 11.2806 13.2649 11.2398 13.2678 11.2C13.2706 11.1601 13.2763 11.136 13.2819 11.0989Z" fill="white"/>
<path opacity="0.4" d="M11.2 11.2002C11.1928 11.2141 11.1866 11.229 11.1794 11.2429C11.1722 11.2568 11.1577 11.2921 11.1485 11.3107C10.5129 12.5804 9.45338 13.6398 8.11752 14.3413C7.23042 14.8064 6.24501 15.099 5.22474 15.2002C4.68932 14.5986 4.27483 13.9174 4 13.1872C4.50378 13.2752 5.0157 13.32 5.52887 13.3209C6.50106 13.3227 7.46552 13.1654 8.37526 12.8566C8.49381 12.8158 8.61031 12.7712 8.72577 12.7267L8.75051 12.7174C8.81237 12.6923 8.87319 12.6682 8.92886 12.644H8.93402H8.94123L9.06186 12.592L9.07216 12.5874L9.09278 12.5781L9.10928 12.5707L9.18557 12.5354L9.19691 12.5298H9.20309L9.21134 12.5252H9.22165L9.30412 12.4852C9.3354 12.4701 9.36392 12.4506 9.38866 12.4277L9.39897 12.4221L9.53608 12.3525L9.5567 12.3413L9.60618 12.3144L9.70928 12.2615L9.73299 12.2494C9.74433 12.242 9.76701 12.2299 9.79175 12.216L9.94639 12.1231H9.95257H9.95877C10.0052 12.0934 10.0557 12.0628 10.1072 12.0303C10.1505 12.0033 10.1917 11.9764 10.2299 11.9504C10.301 11.904 10.3691 11.8576 10.4361 11.8093L10.4485 11.8H10.4536L10.5567 11.7229L10.5711 11.7127C10.6175 11.6793 10.6619 11.6449 10.7031 11.6124C10.8557 11.4955 11.0031 11.3729 11.1464 11.241L11.2 11.2002Z" fill="white"/>
<path opacity="0.6" d="M4.79688 11.2L4.71598 11.1639L4.69088 11.1525C3.61286 10.6144 2.68253 9.7691 1.99446 8.70269C1.87265 8.51392 1.75736 8.32 1.65136 8.11885V8.11163C1.18802 7.22556 0.896947 6.24172 0.796875 5.22338C1.39935 4.68828 2.08157 4.27425 2.81268 4C2.55217 5.46522 2.66816 6.98217 3.14741 8.37777C3.33574 8.9351 3.58094 9.4667 3.87823 9.96218C4.14384 10.4039 4.44812 10.8154 4.78665 11.1907C4.7877 11.193 4.78914 11.1949 4.7909 11.1965C4.79266 11.1981 4.79469 11.1993 4.79688 11.2Z" fill="white"/>
<path opacity="0.7" d="M7.20312 1.49895C5.98399 2.31406 5.01846 3.4508 4.41532 4.78111C3.96087 5.78501 3.72594 6.87307 3.72599 7.97361V7.9998C3.71076 7.95951 3.69147 7.92022 3.67726 7.88194C3.13772 6.46771 3.05644 4.92164 3.44477 3.45938C3.70209 2.48838 4.16287 1.58213 4.79705 0.799805C5.63396 0.892164 6.4482 1.12876 7.20312 1.49895Z" fill="white"/>
<path opacity="0.1" d="M15.2 4.77421C15.1057 5.61836 14.8671 6.43933 14.4948 7.2002C13.5236 5.73585 12.0998 4.64155 10.448 4.08998C10.4077 4.07566 10.3684 4.06441 10.3302 4.05214L10.2032 4.01327H10.1972H10.1861C10.1196 3.99282 10.0541 3.97543 9.98461 3.95805C9.9151 3.94066 9.84861 3.92225 9.77708 3.90691H9.77003L9.55948 3.85986H9.55041H9.54437C9.51415 3.85986 9.47687 3.84656 9.43154 3.83838H9.41038H9.39729H9.39023H9.38318H9.35296H9.34792C9.29655 3.82815 9.24718 3.81998 9.18371 3.81179H9.17364C9.12428 3.80259 9.0729 3.79543 9.02555 3.79031C8.9923 3.79031 8.96511 3.78213 8.94697 3.78111C8.90063 3.77395 8.85328 3.76883 8.80492 3.76474H8.78377C8.72937 3.75963 8.67295 3.75349 8.61049 3.75042C8.41707 3.73508 8.22062 3.72793 8.02317 3.72793H8L8.11586 3.67781C9.53045 3.13432 11.0768 3.05244 12.5394 3.4436C13.5077 3.69467 14.4138 4.14785 15.2 4.77421Z" fill="white"/>
<path opacity="0.3" d="M12.7969 10.6685C12.7984 12.3159 12.2364 13.9145 11.2036 15.2C10.3667 15.1067 9.55234 14.8691 8.79688 14.4979C10.0143 13.677 10.9791 12.5346 11.5834 11.1983C11.6392 11.0788 11.69 10.9552 11.7398 10.8306C11.7641 10.7678 11.7865 10.707 11.8078 10.6492V10.6401C11.822 10.5965 11.8372 10.556 11.8504 10.5155V10.5084V10.4932C11.8636 10.4547 11.8748 10.4182 11.886 10.3848L11.8931 10.3625C11.9104 10.3108 11.9286 10.2551 11.9439 10.1954C11.9642 10.1315 11.9794 10.0697 11.9957 10.0069C11.9957 9.99882 12.0048 9.97754 12.0109 9.95222C12.017 9.92689 12.0312 9.8732 12.0393 9.83875L12.0454 9.81444C12.0454 9.80127 12.0546 9.77797 12.0606 9.74757C12.0738 9.68983 12.086 9.63005 12.0992 9.57028V9.56319V9.55306C12.1094 9.49633 12.1226 9.43555 12.1327 9.37172C12.1429 9.31904 12.15 9.27041 12.1581 9.21874C12.1724 9.13263 12.1825 9.05057 12.1927 8.96649V8.94825C12.1987 8.90266 12.2028 8.8591 12.2089 8.8125V8.78211C12.215 8.72335 12.2191 8.66357 12.2241 8.60785C12.2384 8.41266 12.2455 8.21511 12.2455 8.0152V8C12.2617 8.04052 12.279 8.08003 12.2952 8.12056C12.6136 8.93316 12.7835 9.79609 12.7969 10.6685Z" fill="white"/>
<path opacity="0.5" d="M7.99687 12.2728L7.87798 12.3225C6.7034 12.7738 5.43213 12.9082 4.1901 12.7124C2.94807 12.5166 1.77838 11.9975 0.796875 11.2065C0.890079 10.3688 1.12881 9.5542 1.50216 8.7998C2.31673 10.0176 3.45249 10.9825 4.78176 11.5859C5.31337 11.828 5.87085 12.0078 6.44322 12.1217C6.9519 12.2259 7.46971 12.2782 7.98881 12.2779L7.99687 12.2728Z" fill="white"/>
</g>
<defs>
<clipPath id="clip0_907_23791">
<rect width="16" height="16" fill="white"/>
</clipPath>
</defs>
</svg>
