<svg width="24" height="24" viewBox="0 0 24 24" fill="none" xmlns="http://www.w3.org/2000/svg">
<path d="M10.9608 2.05959L5.46078 4.11959C4.41078 4.51959 3.55078 5.75959 3.55078 6.88959V14.9896C3.55078 15.7996 4.08078 16.8696 4.73078 17.3496L10.2308 21.4596C11.2008 22.1896 12.7908 22.1896 13.7608 21.4596L19.2608 17.3496C19.9108 16.8596 20.4408 15.7996 20.4408 14.9896V6.88959C20.4408 5.76959 19.5808 4.51959 18.5308 4.12959L13.0308 2.06959C12.4708 1.84959 11.5308 1.84959 10.9608 2.05959Z" fill="#34BDB2"/>
<path d="M10.6583 14.2301C10.4683 14.2301 10.2783 14.1601 10.1283 14.0101L8.51828 12.4001C8.22828 12.1101 8.22828 11.6301 8.51828 11.3401C8.80828 11.0501 9.28828 11.0501 9.57828 11.3401L10.6583 12.4201L14.4283 8.65012C14.7183 8.36012 15.1983 8.36012 15.4883 8.65012C15.7783 8.94012 15.7783 9.42012 15.4883 9.71012L11.1883 14.0101C11.0383 14.1601 10.8483 14.2301 10.6583 14.2301Z" fill="white"/>
</svg>
