<svg width="133" height="24" viewBox="0 0 133 24" fill="none" xmlns="http://www.w3.org/2000/svg">
<g clip-path="url(#clip0_2037_69474)">
<path d="M12.5 24C19.1274 24 24.5 18.6274 24.5 12C24.5 5.37258 19.1274 0 12.5 0C5.87258 0 0.5 5.37258 0.5 12C0.5 18.6274 5.87258 24 12.5 24Z" fill="#8A9BA8"/>
<path d="M15.5423 10.8647L15.3433 12.5353C15.3348 12.6129 15.2977 12.6845 15.2394 12.7364C15.1811 12.7883 15.1056 12.8168 15.0276 12.8163H13.2907V17.7742C13.2911 17.8334 13.2681 17.8904 13.2267 17.9327C13.1853 17.975 13.1289 17.9992 13.0697 18H11.2997C11.2702 17.9996 11.2411 17.9934 11.2141 17.9817C11.1871 17.9701 11.1626 17.9532 11.142 17.9321C11.1215 17.911 11.1053 17.886 11.0945 17.8587C11.0836 17.8313 11.0782 17.8021 11.0786 17.7726L11.0881 12.8163H9.77282C9.68907 12.8163 9.60875 12.783 9.54952 12.7238C9.4903 12.6646 9.45703 12.5843 9.45703 12.5005V10.83C9.45703 10.7462 9.4903 10.6659 9.54952 10.6067C9.60875 10.5475 9.68907 10.5142 9.77282 10.5142H11.0802V8.89421C11.0802 7.02 12.1949 6 13.8276 6H15.1649C15.2487 6 15.329 6.03327 15.3882 6.09249C15.4474 6.15171 15.4807 6.23204 15.4807 6.31579V7.72263C15.4807 7.80638 15.4474 7.88671 15.3882 7.94593C15.329 8.00515 15.2487 8.03842 15.1649 8.03842H14.3455C13.4581 8.05263 13.2907 8.47737 13.2907 9.1121V10.5095H15.2344C15.2787 10.5102 15.3224 10.5203 15.3626 10.5391C15.4028 10.5579 15.4386 10.5849 15.4676 10.6184C15.4967 10.6519 15.5183 10.6912 15.5312 10.7336C15.5441 10.7761 15.5478 10.8207 15.5423 10.8647Z" fill="#1E2027"/>
</g>
<g clip-path="url(#clip1_2037_69474)">
<path d="M48.5 24C55.1274 24 60.5 18.6274 60.5 12C60.5 5.37258 55.1274 0 48.5 0C41.8726 0 36.5 5.37258 36.5 12C36.5 18.6274 41.8726 24 48.5 24Z" fill="#8A9BA8"/>
<path d="M54.217 9.11326C53.977 8.368 53.1828 7.92747 52.4455 7.82484C49.8171 7.54537 47.1665 7.54537 44.5381 7.82484C43.807 7.92747 43.0128 8.37432 42.7728 9.11326C42.3986 11.0198 42.3986 12.9809 42.7728 14.8875C43.0192 15.6312 43.8134 16.0733 44.5507 16.1759C47.1792 16.4538 49.8296 16.4538 52.4581 16.1759C53.1892 16.0733 53.9834 15.6248 54.2234 14.8875C54.5955 12.9805 54.5933 11.0194 54.217 9.11326ZM47.0628 14.2985V9.70063L50.8065 11.9996C49.5449 12.7748 48.3197 13.5296 47.0628 14.2985Z" fill="#1E2027"/>
</g>
<g clip-path="url(#clip2_2037_69474)">
<path d="M84.4999 23.9998C91.1273 23.9998 96.4998 18.6273 96.4998 11.9999C96.4998 5.37254 91.1273 0 84.4999 0C77.8725 0 72.5 5.37254 72.5 11.9999C72.5 18.6273 77.8725 23.9998 84.4999 23.9998Z" fill="#8A9BA8"/>
<path d="M91.8518 8.6185C91.3376 8.84653 90.7844 9.00076 90.2043 9.06964C90.7966 8.71476 91.2511 8.15325 91.4657 7.48307C90.9114 7.81185 90.2973 8.05036 89.6442 8.17892C89.121 7.62168 88.3755 7.27344 87.5501 7.27344C85.9663 7.27344 84.6818 8.55796 84.6818 10.1417C84.6818 10.3666 84.7072 10.5854 84.7564 10.7955C82.3726 10.6759 80.259 9.53403 78.8442 7.79816C78.5973 8.2217 78.4557 8.71476 78.4557 9.24033C78.4557 10.2352 78.9625 11.1135 79.7317 11.6278C79.2617 11.613 78.8191 11.484 78.4326 11.2686C78.4324 11.2808 78.4324 11.293 78.4324 11.305C78.4324 12.6948 79.4215 13.8539 80.7334 14.1173C80.493 14.1831 80.2391 14.218 79.9779 14.218C79.7926 14.218 79.6132 14.2003 79.4382 14.1669C79.8031 15.3062 80.8622 16.1355 82.1176 16.1588C81.1358 16.9282 79.8992 17.3866 78.555 17.3866C78.3239 17.3866 78.0951 17.3732 77.8711 17.3464C79.1398 18.1606 80.6479 18.6352 82.2676 18.6352C87.5434 18.6352 90.4286 14.2646 90.4286 10.474C90.4286 10.3497 90.4259 10.2258 90.4203 10.103C90.9812 9.69874 91.4674 9.1937 91.8518 8.6185Z" fill="#1E2027"/>
</g>
<g clip-path="url(#clip3_2037_69474)">
<path d="M120.5 24C127.127 24 132.5 18.6274 132.5 12C132.5 5.37258 127.127 0 120.5 0C113.873 0 108.5 5.37258 108.5 12C108.5 18.6274 113.873 24 120.5 24Z" fill="#8A9BA8"/>
<path d="M121.668 12.0001C121.668 14.8598 119.366 17.178 116.525 17.178C113.685 17.178 111.383 14.8598 111.383 12.0001C111.383 9.14047 113.685 6.82227 116.525 6.82227C119.366 6.82227 121.668 9.14047 121.668 12.0001Z" fill="#1E2027"/>
<path d="M127.311 12.001C127.311 14.6929 126.159 16.8751 124.739 16.8751C123.319 16.8751 122.168 14.6929 122.168 12.001C122.168 9.30912 123.319 7.12695 124.739 7.12695C126.159 7.12695 127.311 9.30912 127.311 12.001Z" fill="#1E2027"/>
<path d="M129.617 11.9998C129.617 14.4116 129.212 16.3667 128.713 16.3667C128.213 16.3667 127.809 14.4116 127.809 11.9998C127.809 9.58797 128.213 7.63281 128.713 7.63281C129.212 7.63281 129.617 9.58797 129.617 11.9998Z" fill="#1E2027"/>
</g>
<defs>
<clipPath id="clip0_2037_69474">
<rect width="24" height="24" fill="white" transform="translate(0.5)"/>
</clipPath>
<clipPath id="clip1_2037_69474">
<rect width="24" height="24" fill="white" transform="translate(36.5)"/>
</clipPath>
<clipPath id="clip2_2037_69474">
<rect width="24" height="24" fill="white" transform="translate(72.5)"/>
</clipPath>
<clipPath id="clip3_2037_69474">
<rect width="24" height="24" fill="white" transform="translate(108.5)"/>
</clipPath>
</defs>
</svg>
