<svg width="148" height="28" viewBox="0 0 148 28" fill="none" xmlns="http://www.w3.org/2000/svg">
<g clip-path="url(#clip0_513_12487)">
<path d="M14 28C21.732 28 28 21.732 28 14C28 6.26801 21.732 0 14 0C6.26801 0 0 6.26801 0 14C0 21.732 6.26801 28 14 28Z" fill="white"/>
<path d="M17.5448 12.6755L17.3127 14.6245C17.3027 14.715 17.2595 14.7986 17.1914 14.8592C17.1234 14.9197 17.0353 14.9529 16.9443 14.9524H14.9179V20.7366C14.9184 20.8056 14.8916 20.8721 14.8433 20.9214C14.795 20.9708 14.7291 20.999 14.66 21H12.595C12.5607 20.9995 12.5268 20.9923 12.4952 20.9787C12.4637 20.9651 12.4351 20.9454 12.4112 20.9208C12.3872 20.8962 12.3683 20.867 12.3556 20.8351C12.343 20.8032 12.3367 20.7691 12.3372 20.7347L12.3482 14.9524H10.8137C10.716 14.9524 10.6223 14.9136 10.5532 14.8445C10.4841 14.7754 10.4453 14.6817 10.4453 14.5839V12.635C10.4453 12.5373 10.4841 12.4436 10.5532 12.3745C10.6223 12.3054 10.716 12.2666 10.8137 12.2666H12.339V10.3766C12.339 8.19 13.6395 7 15.5443 7H17.1045C17.2022 7 17.2959 7.03882 17.365 7.10791C17.4341 7.177 17.4729 7.27071 17.4729 7.36842V9.00974C17.4729 9.10745 17.4341 9.20116 17.365 9.27025C17.2959 9.33934 17.2022 9.37816 17.1045 9.37816H16.1485C15.1132 9.39474 14.9179 9.89026 14.9179 10.6308V12.2611H17.1856C17.2373 12.2619 17.2883 12.2737 17.3352 12.2956C17.382 12.3175 17.4238 12.349 17.4577 12.3881C17.4916 12.4272 17.5168 12.473 17.5318 12.5225C17.5469 12.5721 17.5513 12.6242 17.5448 12.6755V12.6755Z" fill="#1E2027"/>
</g>
<g clip-path="url(#clip1_513_12487)">
<path d="M54 28C61.732 28 68 21.732 68 14C68 6.26801 61.732 0 54 0C46.268 0 40 6.26801 40 14C40 21.732 46.268 28 54 28Z" fill="white"/>
<path d="M60.6712 10.6325C60.3912 9.76299 59.4646 9.24904 58.6043 9.12931C55.5379 8.80325 52.4455 8.80325 49.3791 9.12931C48.5262 9.24904 47.5996 9.77036 47.3196 10.6325C46.883 12.8568 46.883 15.1447 47.3196 17.369C47.607 18.2367 48.5336 18.7525 49.3938 18.8722C52.4604 19.1964 55.5525 19.1964 58.6191 18.8722C59.472 18.7525 60.3986 18.2293 60.6786 17.369C61.1127 15.1443 61.1102 12.8563 60.6712 10.6325V10.6325ZM52.3246 16.6819V11.3177L56.6922 13.9998C55.2204 14.9043 53.7909 15.7848 52.3246 16.6819Z" fill="#1E2027"/>
</g>
<g clip-path="url(#clip2_513_12487)">
<path d="M93.9999 27.9998C101.732 27.9998 108 21.7318 108 13.9999C108 6.26796 101.732 0 93.9999 0C86.268 0 80 6.26796 80 13.9999C80 21.7318 86.268 27.9998 93.9999 27.9998Z" fill="white"/>
<path d="M102.576 10.0541C101.976 10.3201 101.331 10.5001 100.654 10.5804C101.345 10.1664 101.876 9.51131 102.126 8.72943C101.479 9.11301 100.763 9.39127 100.001 9.54126C99.3905 8.89115 98.5208 8.48486 97.5578 8.48486C95.71 8.48486 94.2114 9.98348 94.2114 11.8312C94.2114 12.0935 94.2411 12.3488 94.2985 12.5939C91.5174 12.4544 89.0515 11.1222 87.4009 9.09704C87.1129 9.59117 86.9477 10.1664 86.9477 10.7796C86.9477 11.9403 87.5389 12.965 88.4363 13.5649C87.888 13.5477 87.3717 13.3972 86.9207 13.1459C86.9205 13.1601 86.9205 13.1744 86.9205 13.1883C86.9205 14.8097 88.0744 16.1621 89.605 16.4693C89.3245 16.5462 89.0283 16.5869 88.7236 16.5869C88.5074 16.5869 88.2981 16.5661 88.0939 16.5272C88.5197 17.8564 89.7552 18.8239 91.2199 18.8511C90.0744 19.7488 88.6317 20.2836 87.0635 20.2836C86.7939 20.2836 86.5269 20.2679 86.2656 20.2367C87.7458 21.1865 89.5052 21.7403 91.3949 21.7403C97.55 21.7403 100.916 16.6413 100.916 12.2188C100.916 12.0738 100.913 11.9293 100.906 11.7861C101.561 11.3144 102.128 10.7252 102.576 10.0541Z" fill="#1E2027"/>
</g>
<g clip-path="url(#clip3_513_12487)">
<path d="M134 28C141.732 28 148 21.732 148 14C148 6.26801 141.732 0 134 0C126.268 0 120 6.26801 120 14C120 21.732 126.268 28 134 28Z" fill="white"/>
<path d="M135.359 13.9998C135.359 17.3361 132.673 20.0407 129.359 20.0407C126.046 20.0407 123.359 17.3361 123.359 13.9998C123.359 10.6636 126.046 7.95898 129.359 7.95898C132.673 7.95898 135.359 10.6636 135.359 13.9998Z" fill="#1E2027"/>
<path d="M141.937 13.9999C141.937 17.1404 140.594 19.6863 138.937 19.6863C137.281 19.6863 135.938 17.1404 135.938 13.9999C135.938 10.8593 137.281 8.31348 138.937 8.31348C140.594 8.31348 141.937 10.8593 141.937 13.9999Z" fill="#1E2027"/>
<path d="M144.634 13.9996C144.634 16.8134 144.161 19.0944 143.578 19.0944C142.996 19.0944 142.523 16.8134 142.523 13.9996C142.523 11.1858 142.996 8.90479 143.578 8.90479C144.161 8.90479 144.634 11.1858 144.634 13.9996Z" fill="#1E2027"/>
</g>
<defs>
<clipPath id="clip0_513_12487">
<rect width="28" height="28" fill="white"/>
</clipPath>
<clipPath id="clip1_513_12487">
<rect width="28" height="28" fill="white" transform="translate(40)"/>
</clipPath>
<clipPath id="clip2_513_12487">
<rect width="28" height="28" fill="white" transform="translate(80)"/>
</clipPath>
<clipPath id="clip3_513_12487">
<rect width="28" height="28" fill="white" transform="translate(120)"/>
</clipPath>
</defs>
</svg>
