<svg width="84" height="24" viewBox="0 0 84 24" fill="none" xmlns="http://www.w3.org/2000/svg">
<path d="M25.7109 8.11009C25.7109 10.9286 29.8813 12.4021 34.0007 12.4021C38.1202 12.4021 42.2901 10.9286 42.2901 8.11009C42.2901 2.47502 25.7109 2.47502 25.7109 8.11009Z" fill="#006CFF"/>
<path d="M34.0007 14.0259C30.8713 14.0259 27.7323 13.2875 25.7417 11.7178C25.7383 11.7744 25.7109 11.8223 25.7109 11.8801C25.7109 14.6986 29.8813 16.1717 34.0007 16.1717C38.1202 16.1717 42.2901 14.6986 42.2901 11.8801C42.2901 13.1103 42.2598 11.7178 42.2598 11.7178C40.2687 13.2875 37.1298 14.0259 34.0007 14.0259Z" fill="#006CFF"/>
<path d="M34.0007 17.9702C30.8713 17.9702 27.7323 17.2319 25.7417 15.6621C25.7383 15.7183 25.7109 15.7666 25.7109 15.824C25.7109 18.6429 29.8813 20.116 34.0007 20.116C38.1202 20.116 42.2901 18.6429 42.2901 15.824C42.2901 15.7666 42.2632 15.7183 42.2598 15.6621C40.2687 17.2319 37.1298 17.9702 34.0007 17.9702Z" fill="#006CFF"/>
<path d="M11.2519 8.08008V10.9401L10.2419 10.5901C9.73187 10.4101 9.42188 10.2401 9.42188 9.37008C9.42188 8.66008 9.95188 8.08008 10.6019 8.08008H11.2519Z" fill="#006CFF"/>
<path d="M14.58 14.6296C14.58 15.3396 14.05 15.9196 13.4 15.9196H12.75V13.0596L13.76 13.4096C14.27 13.5896 14.58 13.7596 14.58 14.6296Z" fill="#006CFF"/>
<path d="M16.19 2H7.81C4.17 2 2 4.17 2 7.81V16.19C2 19.83 4.17 22 7.81 22H16.19C19.83 22 22 19.83 22 16.19V7.81C22 4.17 19.83 2 16.19 2ZM14.26 12C15.04 12.27 16.08 12.84 16.08 14.63C16.08 16.17 14.88 17.42 13.4 17.42H12.75V18C12.75 18.41 12.41 18.75 12 18.75C11.59 18.75 11.25 18.41 11.25 18V17.42H10.89C9.25 17.42 7.92 16.03 7.92 14.33C7.92 13.92 8.25 13.58 8.67 13.58C9.08 13.58 9.42 13.92 9.42 14.33C9.42 15.21 10.08 15.92 10.89 15.92H11.25V12.53L9.74 12C8.96 11.73 7.92 11.16 7.92 9.37C7.92 7.83 9.12 6.58 10.6 6.58H11.25V6C11.25 5.59 11.59 5.25 12 5.25C12.41 5.25 12.75 5.59 12.75 6V6.58H13.11C14.75 6.58 16.08 7.97 16.08 9.67C16.08 10.08 15.75 10.42 15.33 10.42C14.92 10.42 14.58 10.08 14.58 9.67C14.58 8.79 13.92 8.08 13.11 8.08H12.75V11.47L14.26 12Z" fill="#006CFF"/>
<path fill-rule="evenodd" clip-rule="evenodd" d="M54.2718 3.84134C54.4049 3.72189 54.5809 3.65928 54.7611 3.66731C58.5701 3.78134 61.7535 6.54646 62.3304 10.2422C62.3341 10.2642 62.3341 10.2867 62.3304 10.3088C62.3428 10.4837 62.2837 10.6562 62.1662 10.7882C62.0486 10.9202 61.8823 11.0008 61.7041 11.0122L55.3045 11.4342C55.0928 11.453 54.883 11.3833 54.7264 11.2424C54.5698 11.1015 54.481 10.9023 54.4819 10.6938L54.0517 4.40772V4.30407C54.0596 4.12727 54.1387 3.9608 54.2718 3.84134ZM53.8329 13.0779L59.3579 12.7373H59.4174C59.6556 12.7412 59.8825 12.8378 60.048 13.0058C60.2136 13.1739 60.3044 13.3995 60.3004 13.6332C60.0818 16.8183 57.7466 19.4795 54.5688 20.1652C51.391 20.8508 48.1333 19.3961 46.573 16.5949C46.1142 15.788 45.8243 14.8995 45.7202 13.9812C45.6799 13.7091 45.6622 13.4343 45.6674 13.1594C45.6779 9.77251 48.0892 6.84918 51.4632 6.13288C51.8717 6.05643 52.2812 6.26036 52.4594 6.62895C52.5474 6.76169 52.5702 6.92421 52.5806 7.08315C52.639 7.97822 52.6992 8.86585 52.7592 9.75005C52.8108 10.5106 52.8622 11.2686 52.9122 12.0265C52.9096 12.2051 52.9377 12.3828 52.9952 12.5522C53.1306 12.8856 53.4676 13.0971 53.8329 13.0779Z" fill="#006CFF"/>
<path fill-rule="evenodd" clip-rule="evenodd" d="M78.4118 8.07584C78.4118 10.5234 76.4494 12.4859 74.0002 12.4859C71.5517 12.4859 69.5885 10.5234 69.5885 8.07584C69.5885 5.62831 71.5517 3.66663 74.0002 3.66663C76.4494 3.66663 78.4118 5.62831 78.4118 8.07584ZM74.0002 20.3333C70.3855 20.3333 67.3335 19.7458 67.3335 17.4791C67.3335 15.2116 70.4046 14.6449 74.0002 14.6449C77.6157 14.6449 80.6668 15.2324 80.6668 17.4991C80.6668 19.7666 77.5957 20.3333 74.0002 20.3333Z" fill="#006CFF"/>
</svg>
